<svg width="30" height="30" viewBox="0 0 30 30" fill="none" xmlns="http://www.w3.org/2000/svg">
<mask id="mask0_15_124" style="mask-type:alpha" maskUnits="userSpaceOnUse" x="0" y="0" width="30" height="30">
<rect width="30" height="30" fill="#D9D9D9"/>
</mask>
<g mask="url(#mask0_15_124)">
<path d="M8.75 27.5C8.0625 27.5 7.47396 27.2552 6.98438 26.7656C6.49479 26.276 6.25 25.6875 6.25 25C6.25 24.3125 6.49479 23.724 6.98438 23.2344C7.47396 22.7448 8.0625 22.5 8.75 22.5C9.4375 22.5 10.026 22.7448 10.5156 23.2344C11.0052 23.724 11.25 24.3125 11.25 25C11.25 25.6875 11.0052 26.276 10.5156 26.7656C10.026 27.2552 9.4375 27.5 8.75 27.5ZM21.25 27.5C20.5625 27.5 19.974 27.2552 19.4844 26.7656C18.9948 26.276 18.75 25.6875 18.75 25C18.75 24.3125 18.9948 23.724 19.4844 23.2344C19.974 22.7448 20.5625 22.5 21.25 22.5C21.9375 22.5 22.526 22.7448 23.0156 23.2344C23.5052 23.724 23.75 24.3125 23.75 25C23.75 25.6875 23.5052 26.276 23.0156 26.7656C22.526 27.2552 21.9375 27.5 21.25 27.5ZM7.6875 7.5L10.6875 13.75H19.4375L22.875 7.5H7.6875ZM6.5 5H24.9375C25.4167 5 25.7812 5.21354 26.0312 5.64062C26.2813 6.06771 26.2917 6.5 26.0625 6.9375L21.625 14.9375C21.3958 15.3542 21.0885 15.6771 20.7031 15.9062C20.3177 16.1354 19.8958 16.25 19.4375 16.25H10.125L8.75 18.75H23.75V21.25H8.75C7.8125 21.25 7.10417 20.8385 6.625 20.0156C6.14583 19.1927 6.125 18.375 6.5625 17.5625L8.25 14.5L3.75 5H1.25V2.5H5.3125L6.5 5Z" fill="black"/>
</g>
</svg>
